<svg width="1088" height="740" viewBox="0 0 1088 740" fill="none" xmlns="http://www.w3.org/2000/svg">
<path d="M0 500H35C101.274 500 155 553.726 155 620C155 686.274 101.274 740 35 740H0V500Z" fill="#F1F5F9"/>
<path d="M195 580C195 535.817 230.817 500 275 500C319.183 500 355 535.817 355 580V600H195V580Z" fill="#FFE3FB"/>
<path d="M395 500H494C521.614 500 544 522.386 544 550C544 577.614 521.614 600 494 600H469.5C428.355 600 395 566.645 395 525.5V500Z" fill="#15837B"/>
<path d="M570 400C570 179.086 749.086 0 970 0H1074V600H570V400Z" fill="#7DF1E8"/>
<path d="M195 640H544V740H295C239.772 740 195 695.228 195 640Z" fill="#FFDD58"/>
<path d="M544 640H1038C1065.61 640 1088 662.386 1088 690C1088 717.614 1065.61 740 1038 740H544V640Z" fill="#FFDD58"/>
</svg>
